<mxfile host="app.diagrams.net" agent="Mozilla/5.0 (Windows NT 10.0; Win64; x64) AppleWebKit/537.36 (KHTML, like Gecko) Chrome/128.0.0.0 Safari/537.36 Edg/128.0.0.0" version="24.7.7">
  <diagram name="Página-1" id="WTjPW9QKz0gyJNQhYu-H">
    <mxGraphModel dx="1450" dy="570" grid="0" gridSize="10" guides="1" tooltips="1" connect="1" arrows="1" fold="1" page="0" pageScale="1" pageWidth="827" pageHeight="1169" math="0" shadow="0">
      <root>
        <mxCell id="0" />
        <mxCell id="1" parent="0" />
        <mxCell id="njQQPeLIlZZ1A4R_37HI-3" style="edgeStyle=none;curved=1;rounded=0;orthogonalLoop=1;jettySize=auto;html=1;fontSize=12;startSize=8;endSize=8;entryX=0;entryY=0.5;entryDx=0;entryDy=0;" parent="1" source="njQQPeLIlZZ1A4R_37HI-2" edge="1" target="njQQPeLIlZZ1A4R_37HI-7">
          <mxGeometry relative="1" as="geometry">
            <mxPoint x="139" y="71" as="targetPoint" />
          </mxGeometry>
        </mxCell>
        <mxCell id="njQQPeLIlZZ1A4R_37HI-2" value="&lt;p style=&quot;line-height: 30%; font-size: 18px;&quot;&gt;&lt;b&gt;&lt;i&gt;&lt;u&gt;Cliente&lt;/u&gt;&lt;/i&gt;&lt;/b&gt;&lt;/p&gt;" style="shape=umlActor;verticalLabelPosition=bottom;verticalAlign=top;html=1;outlineConnect=0;" parent="1" vertex="1">
          <mxGeometry x="-275" y="5" width="63" height="132" as="geometry" />
        </mxCell>
        <mxCell id="njQQPeLIlZZ1A4R_37HI-7" value="Ingresar Credenciales (Correo y contraseña)" style="ellipse;whiteSpace=wrap;html=1;" parent="1" vertex="1">
          <mxGeometry x="-150" y="29" width="131" height="84" as="geometry" />
        </mxCell>
        <mxCell id="njQQPeLIlZZ1A4R_37HI-8" style="edgeStyle=none;curved=1;rounded=0;orthogonalLoop=1;jettySize=auto;html=1;exitX=1;exitY=0.3333333333333333;exitDx=0;exitDy=0;exitPerimeter=0;fontSize=12;startSize=8;endSize=8;" parent="1" source="njQQPeLIlZZ1A4R_37HI-2" target="njQQPeLIlZZ1A4R_37HI-2" edge="1">
          <mxGeometry relative="1" as="geometry" />
        </mxCell>
        <mxCell id="JONmGE6MkuXsMNqA67Qh-2" value="" style="endArrow=classic;html=1;rounded=0;exitX=1;exitY=0.5;exitDx=0;exitDy=0;entryX=0;entryY=0.5;entryDx=0;entryDy=0;" edge="1" parent="1" source="njQQPeLIlZZ1A4R_37HI-7" target="JONmGE6MkuXsMNqA67Qh-7">
          <mxGeometry relative="1" as="geometry">
            <mxPoint x="-5" y="72.25" as="sourcePoint" />
            <mxPoint x="121" y="69.75" as="targetPoint" />
          </mxGeometry>
        </mxCell>
        <mxCell id="JONmGE6MkuXsMNqA67Qh-5" value="Include" style="edgeLabel;html=1;align=center;verticalAlign=middle;resizable=0;points=[];" vertex="1" connectable="0" parent="JONmGE6MkuXsMNqA67Qh-2">
          <mxGeometry x="0.048" y="-4" relative="1" as="geometry">
            <mxPoint x="-1" y="-2" as="offset" />
          </mxGeometry>
        </mxCell>
        <mxCell id="JONmGE6MkuXsMNqA67Qh-7" value="Ingreso Exitoso" style="shape=parallelogram;perimeter=parallelogramPerimeter;whiteSpace=wrap;html=1;fixedSize=1;" vertex="1" parent="1">
          <mxGeometry x="120" y="41" width="120" height="60" as="geometry" />
        </mxCell>
        <mxCell id="JONmGE6MkuXsMNqA67Qh-8" value="" style="endArrow=block;startArrow=block;endFill=1;startFill=1;html=1;rounded=0;exitX=1;exitY=1;exitDx=0;exitDy=0;entryX=0.5;entryY=0;entryDx=0;entryDy=0;" edge="1" parent="1" source="njQQPeLIlZZ1A4R_37HI-7" target="JONmGE6MkuXsMNqA67Qh-17">
          <mxGeometry width="160" relative="1" as="geometry">
            <mxPoint x="-93" y="252" as="sourcePoint" />
            <mxPoint x="30" y="206" as="targetPoint" />
          </mxGeometry>
        </mxCell>
        <mxCell id="JONmGE6MkuXsMNqA67Qh-9" value="Extend" style="edgeLabel;html=1;align=center;verticalAlign=middle;resizable=0;points=[];" vertex="1" connectable="0" parent="JONmGE6MkuXsMNqA67Qh-8">
          <mxGeometry x="0.0396" y="-2" relative="1" as="geometry">
            <mxPoint as="offset" />
          </mxGeometry>
        </mxCell>
        <mxCell id="JONmGE6MkuXsMNqA67Qh-10" value="Los datos ingresados son incorrectos" style="shape=parallelogram;perimeter=parallelogramPerimeter;whiteSpace=wrap;html=1;fixedSize=1;" vertex="1" parent="1">
          <mxGeometry x="-288" y="225" width="176" height="48" as="geometry" />
        </mxCell>
        <mxCell id="JONmGE6MkuXsMNqA67Qh-15" value="" style="endArrow=block;startArrow=block;endFill=1;startFill=1;html=1;rounded=0;exitX=0.5;exitY=0;exitDx=0;exitDy=0;entryX=0;entryY=1;entryDx=0;entryDy=0;" edge="1" parent="1" source="JONmGE6MkuXsMNqA67Qh-10" target="njQQPeLIlZZ1A4R_37HI-7">
          <mxGeometry width="160" relative="1" as="geometry">
            <mxPoint x="125" y="252" as="sourcePoint" />
            <mxPoint x="285" y="252" as="targetPoint" />
          </mxGeometry>
        </mxCell>
        <mxCell id="JONmGE6MkuXsMNqA67Qh-16" value="Extend" style="edgeLabel;html=1;align=center;verticalAlign=middle;resizable=0;points=[];" vertex="1" connectable="0" parent="JONmGE6MkuXsMNqA67Qh-15">
          <mxGeometry x="0.0499" relative="1" as="geometry">
            <mxPoint as="offset" />
          </mxGeometry>
        </mxCell>
        <mxCell id="JONmGE6MkuXsMNqA67Qh-17" value="Recuperar Contraseña" style="shape=parallelogram;perimeter=parallelogramPerimeter;whiteSpace=wrap;html=1;fixedSize=1;" vertex="1" parent="1">
          <mxGeometry x="-29" y="226.25" width="186" height="45.5" as="geometry" />
        </mxCell>
      </root>
    </mxGraphModel>
  </diagram>
</mxfile>
